<?xml version="1.0" standalone="no"?>
<!DOCTYPE svg PUBLIC "-//W3C//DTD SVG 20010904//EN"
 "http://www.w3.org/TR/2001/REC-SVG-20010904/DTD/svg10.dtd">
<svg version="1.0" xmlns="http://www.w3.org/2000/svg"
 width="220.000000pt" height="220.000000pt" viewBox="0 0 220.000000 220.000000"
 preserveAspectRatio="xMidYMid meet">
<metadata>
Created by potrace 1.10, written by Peter Selinger 2001-2011
</metadata>
<g transform="translate(0.000000,220.000000) scale(0.100000,-0.100000)"
fill="#ffffff" stroke="none">
<path d="M917 1577 c-19 -23 -53 -49 -82 -62 -64 -28 -72 -38 -77 -105 -3 -39
-13 -68 -31 -95 -34 -51 -34 -72 3 -142 20 -37 30 -70 30 -99 0 -48 16 -69 70
-91 19 -9 59 -38 88 -65 50 -48 55 -50 90 -42 47 11 117 11 164 0 35 -8 40 -5
90 41 29 27 67 55 85 62 51 21 74 53 79 111 2 30 14 69 29 94 31 53 31 82 1
126 -15 22 -26 58 -31 97 -8 69 -26 93 -87 112 -22 7 -50 29 -71 55 l-35 42
-142 0 -142 0 -31 -39z m168 19 c22 0 59 4 82 8 42 8 44 7 85 -37 24 -26 64
-55 91 -66 51 -22 67 -47 67 -104 0 -18 14 -60 32 -93 l32 -62 -32 -52 c-23
-36 -32 -63 -32 -93 0 -52 -20 -83 -67 -102 -20 -9 -58 -36 -85 -61 -48 -45
-51 -46 -91 -38 -53 10 -101 10 -154 0 -40 -8 -43 -6 -90 37 -26 24 -67 54
-90 66 -50 25 -63 46 -63 101 0 27 -9 54 -27 81 -14 22 -26 52 -26 68 0 15 12
45 26 66 17 25 27 53 27 77 0 62 15 87 67 109 27 11 67 41 90 66 40 44 44 45
80 38 21 -5 56 -8 78 -9z"/>
<path d="M890 1452 c0 -46 36 -71 109 -76 72 -5 89 -17 98 -69 8 -52 -17 -87
-60 -86 -30 0 -31 1 -10 11 47 23 35 82 -15 76 -37 -4 -50 -32 -32 -66 13 -22
24 -28 61 -30 38 -2 48 1 73 27 22 23 30 43 35 90 9 78 23 92 21 21 -4 -137 0
-240 11 -240 7 0 10 29 8 85 -3 90 4 112 27 81 16 -23 19 -128 4 -157 -17 -30
-55 -24 -81 14 -12 17 -29 38 -37 45 -35 28 -129 5 -152 -37 -15 -30 -12 -78
7 -97 25 -25 77 -44 120 -44 38 0 123 35 123 51 0 13 -4 12 -45 -12 -94 -56
-253 22 -189 92 24 26 45 24 88 -10 73 -58 173 -48 232 22 37 44 33 88 -13
126 l-37 30 27 21 c38 30 36 75 -4 119 l-31 34 -41 -41 -40 -40 -32 34 c-37
39 -74 44 -144 19 -49 -17 -74 -11 -66 16 4 11 2 19 -4 19 -6 0 -11 -13 -11
-28z m204 -46 c30 -28 36 -40 35 -72 l-1 -39 -9 35 c-15 55 -41 70 -117 70
-69 0 -73 8 -14 26 58 18 68 16 106 -20z m160 2 c26 -37 19 -57 -9 -23 -13 17
-24 33 -25 38 0 15 19 6 34 -15z m-30 -34 c20 -29 18 -53 -6 -68 -23 -14 -29
-5 -35 49 -5 36 -3 45 10 45 8 0 22 -12 31 -26z m-199 -104 c0 -7 -6 -15 -12
-17 -8 -3 -13 4 -13 17 0 13 5 20 13 18 6 -3 12 -11 12 -18z m254 -46 c10 -22
9 -31 -4 -50 -8 -13 -18 -24 -20 -24 -3 0 -5 23 -5 50 0 55 10 64 29 24z
m-185 -75 c25 -20 34 -39 19 -39 -5 0 -24 14 -43 30 -41 34 -19 43 24 9z"/>
<path d="M884 868 c-4 -7 -4 -10 1 -6 4 4 15 2 24 -5 14 -11 14 -10 2 6 -16
20 -18 21 -27 5z"/>
<path d="M200 700 l0 -120 46 0 46 0 -2 63 c-1 34 -1 65 0 70 1 7 2 77 1 97
-1 6 -21 10 -46 10 l-45 0 0 -120z m67 53 c-1 -26 -7 -39 -18 -41 -13 -2 -17
6 -17 37 -1 34 3 41 18 41 16 0 19 -7 17 -37z m-1 -106 c1 -29 -3 -37 -17 -37
-13 0 -18 8 -17 33 1 38 6 49 21 44 6 -2 12 -20 13 -40z"/>
<path d="M320 701 l0 -121 40 0 c49 0 52 9 48 140 l-3 95 -42 3 -43 3 0 -120z
m53 -4 c2 -72 -1 -87 -13 -87 -13 0 -16 17 -18 91 -2 78 0 90 13 87 13 -2 16
-20 18 -91z"/>
<path d="M446 718 c-10 -57 -20 -111 -22 -120 -4 -13 0 -18 14 -18 11 0 20 6
19 13 -1 35 5 47 23 47 16 0 20 -7 20 -30 0 -22 5 -30 18 -30 17 0 18 4 6 63
-8 34 -16 88 -20 120 -5 45 -10 57 -24 57 -14 0 -20 -19 -34 -102z m44 -18 c0
-18 -5 -30 -13 -30 -9 0 -12 10 -9 30 2 17 8 30 13 30 5 0 9 -13 9 -30z"/>
<path d="M550 701 c0 -109 2 -121 18 -121 14 0 17 8 14 55 -5 72 14 72 23 0 6
-45 11 -55 27 -55 13 0 17 4 11 13 -4 6 -8 59 -8 117 l0 105 -42 3 -43 3 0
-120z m60 59 c0 -16 0 -33 1 -37 0 -5 -7 -9 -15 -11 -12 -3 -16 6 -16 37 0 30
4 41 15 41 10 0 15 -10 15 -30z"/>
<path d="M665 700 l0 -120 42 0 c52 0 55 7 51 140 l-3 95 -45 3 -45 3 0 -121z
m58 3 c-1 -68 -5 -89 -16 -91 -13 -3 -15 13 -14 87 0 76 3 91 16 91 14 0 16
-14 14 -87z"/>
<path d="M857 814 c-4 -4 -7 -58 -7 -121 l0 -113 39 0 c45 0 51 10 51 76 0 40
-2 44 -25 44 -25 0 -33 -14 -15 -25 16 -10 12 -65 -5 -65 -12 0 -15 16 -15 80
0 44 0 83 -1 88 0 4 8 9 17 11 12 2 15 -2 11 -13 -5 -11 -1 -16 14 -16 16 0
20 5 17 28 -3 23 -8 27 -38 30 -20 2 -39 0 -43 -4z"/>
<path d="M974 700 c-19 -115 -20 -120 -2 -120 13 0 18 8 18 30 0 23 4 30 20
30 16 0 20 -7 20 -30 0 -22 5 -30 18 -30 17 0 17 6 -2 120 -16 95 -24 120 -36
120 -13 0 -21 -25 -36 -120z m46 0 c0 -16 -4 -30 -10 -30 -5 0 -10 14 -10 30
0 17 5 30 10 30 6 0 10 -13 10 -30z"/>
<path d="M1081 700 c3 -111 4 -120 22 -120 19 0 19 5 13 82 -7 83 1 95 19 31
13 -43 27 -44 38 -1 16 64 25 50 20 -31 -5 -75 -4 -81 13 -81 18 0 19 9 19
120 0 105 -2 120 -17 120 -11 0 -22 -17 -33 -51 -19 -56 -25 -55 -45 9 -9 30
-19 42 -32 42 -18 0 -19 -8 -17 -120z"/>
<path d="M1248 700 l-3 -120 48 0 c39 0 47 3 47 18 0 15 -6 18 -30 14 -29 -4
-30 -3 -30 37 0 32 3 39 15 35 11 -4 15 0 15 16 0 16 -4 20 -15 16 -12 -4 -15
3 -15 34 0 38 2 40 30 40 20 0 30 5 30 15 0 11 -12 15 -44 15 l-45 0 -3 -120z"/>
<path d="M1450 788 c0 -18 -8 -72 -18 -120 -17 -85 -17 -88 0 -88 13 0 18 8
18 25 0 14 7 28 15 32 20 7 27 0 29 -31 1 -18 7 -26 19 -26 13 0 16 6 12 23
-5 25 -35 204 -35 212 0 3 -9 5 -20 5 -16 0 -20 -7 -20 -32z m33 -85 c5 -26 3
-33 -9 -33 -12 0 -15 6 -10 23 3 12 6 28 6 36 0 22 6 9 13 -26z"/>
<path d="M1548 700 c3 -96 6 -120 18 -120 10 0 14 14 14 55 0 30 5 55 10 55 8
0 15 -47 13 -97 -1 -7 8 -13 18 -13 19 0 19 8 3 88 -2 12 0 22 6 22 7 0 10 23
8 63 l-3 62 -45 3 -45 3 3 -121z m62 50 c0 -29 -4 -40 -15 -40 -11 0 -15 11
-15 40 0 29 4 40 15 40 11 0 15 -11 15 -40z"/>
<path d="M1660 700 l0 -120 45 0 c33 0 45 4 45 15 0 10 -10 15 -30 15 -28 0
-30 2 -30 41 0 32 3 40 15 35 10 -4 15 1 15 14 0 13 -5 18 -15 14 -12 -5 -15
3 -15 35 0 39 2 41 30 41 20 0 30 5 30 15 0 11 -12 15 -45 15 l-45 0 0 -120z"/>
<path d="M1768 700 c-3 -112 -2 -120 16 -120 17 0 18 6 13 70 -7 87 6 83 23
-5 9 -49 16 -65 29 -65 14 0 16 17 19 120 4 112 3 120 -15 120 -17 0 -18 -7
-16 -72 l2 -73 -13 45 c-8 25 -17 57 -20 73 -4 15 -13 27 -21 27 -11 0 -14
-24 -17 -120z"/>
<path d="M1906 718 c-10 -57 -20 -111 -22 -120 -4 -13 0 -18 15 -18 12 0 20 3
20 8 -5 32 3 52 21 52 16 0 20 -7 20 -30 0 -24 4 -30 21 -30 16 0 20 4 14 18
-10 27 -35 164 -35 195 0 20 -5 27 -18 27 -16 0 -22 -16 -36 -102z m44 -18 c0
-18 -5 -30 -13 -30 -9 0 -12 10 -9 30 2 17 8 30 13 30 5 0 9 -13 9 -30z"/>
</g>
</svg>
